<svg xmlns="http://www.w3.org/2000/svg" viewBox="0 0 988.9 797.2"><title>workspace-svg</title><g id="bde56b20-9042-4854-b231-69caef932482" data-name="Layer 2"><g id="ece87e09-f1b5-4a62-89ce-b98a2d13bf8a" data-name="Layer 1"><path d="M192.2,59.1c-.4-1.6-.7-3.1-1.2-4.6-1.6-4.4,2-5.6,4.5-7.1s2.7.8,2.8,2.4a29.8,29.8,0,0,1-.2,7.3c-1.5,8,4.6,11.9,8.5,17.9,2.9-11.3,2.7-21.8,2.3-32.4-.1-4.9,3.3-6.2,6.4-8s2.7.3,1.6,1.9c-7.1,10.5-3.2,22.8-5.5,34.1-1.5,7.5,4.2,13.2,7.3,19.7,2.6-1.9,1.8-4.6,2.9-6.5s2.7-3.6,5.1-2.8,1.8,2.8.9,4.2c-5.3,7.2-4.5,14.7-1.8,22.6,1.5,4.4,2.2,9.1,3.3,14.1,2.1-3.8,1.5-7.6,1.5-11.3s1.7-5.4,2.7-8.1c2.3-6.5,7.9-11.7,8.2-19.1a6.1,6.1,0,0,1,.9-2.8c1-1.9,2.3-4.8,4.8-3.7s.1,3.4,0,5.1c-.1,3.6-2.4,5.9-4.4,8.4.5.4.7.7.9.7s3.4-1.1,4,.4-1.4,3-2.7,3.4c-9,2.9-10.1,10.7-11.2,18.3-.6,4,.3,8.7-2.6,11.6s-2.5,5-2.7,7.8c-.6,6.1,1.9,11.1,5.8,15.9,7.3-14.9,19.4-26.9,24.8-42.9a45.8,45.8,0,0,1,20.4-25.8c3.4-2.1,4.9-5.6,5.9-9.3a11.3,11.3,0,0,1,6.8-7.8c1.8-.8,3.2-2.1,5.2.3s3.7,1.5,2.8,3.6-3.6,1.7-5.5.6-4.6-.9-5.6,2.3a56.6,56.6,0,0,1-2.9,6.9c2.6.5,4.9-.6,7.2-.9s3.6.4,3.8,2.1-1.9,2.2-3.3,2.7a2.6,2.6,0,0,1-1.5,0c-8.8-4.4-13.5,2.4-18.5,7.2s-7.8,10.4-10.2,16.5c-5,12.3-12.7,23-20,33.9-3.5,5.4-5.7,11.3-8.3,17-.8,1.7-.4,4.3.1,6.2,3,10.1,4.9,20.2,4.5,31.9,4.5-5.1,8-9.5,11.9-13.4,1.2-1.2,1.2-3.7,1.2-5.5s-2.1-3.1,1-3.5,3.2,1.4,2.9,3.6c0,.3.3.5.6,1.3,12.2-8.7,26.8-10.3,40.8-13.7,4.1-1,8.9-1.4,9.4-7.3,0-.3.3-.5.5-.8s3.7-3.5,5.9-2.3-.4,3.4-.5,5.2a3.6,3.6,0,0,0,1.4.2,60.3,60.3,0,0,1,30.7-1.1c1.9.5,4,.1,5.2,2.1a1.6,1.6,0,0,1-.3,2.2,5.1,5.1,0,0,1-6-.1c-6.3-4.1-13.1-4.3-20.2-3.1a13.3,13.3,0,0,0-2.4.9c5.1,2.6,8.4,6.2,12.4,9.1,1.1.9,3.3,1.5,2,3.2s-3,.8-4.3-.5l-4.7-4.2c-8.6-7.9-17.8-6.2-28-1.9,5.1,1.1,9.8,3.9,13.4,3.8,6.1-.3,9,.9,10.5,6.6.2.8,3,.9,4.4,1.5a5.1,5.1,0,0,1,3.4,4.9c-.1,2.1-2.6,1.2-3.7,1.9-3.1,1.9-5.9,3.7-9.3,1-.8-.6-1.6-.8-1.2-2.2,1.5-4.7-.5-7.2-5.3-6.6-2.3.2-4.6-.6-5.5-2.4s1.8-1.5,2.6-2.6c-7.4-6.4-31.6-4.1-44.2,4.6,3.2.3,5.7.9,8.4.3.8-.1,2-.9,2.5.4s-1.1,1.8-2.1,2.2a6.2,6.2,0,0,1-5.6-.3c-3.7-2-7-1.3-10.3,1.3-7.1,5.7-12.4,12.9-17.1,20.5a5.6,5.6,0,0,0-.6,4.2,253.3,253.3,0,0,0,9.8,48.7,88.3,88.3,0,0,1,4,28.4c0,3,1.1,3.9,3.6,3.4,5.4-1.1,10.7.8,16.1,0,3.6-.5,4.9,1.2,4.8,4.8,0,17.4.2,34.8.2,52.2,0,2.7.4,3.7,3.3,3.6,5.5-.1,11.1,0,16.6.2,2.9.1,3.5-.9,3-3.7-1.4-8.3-2.4-16.8-3.8-25.1-.6-3.4.3-4.7,3.8-4.8,8.9,0,17.9-.3,26.8-.5,3.4-.1,1.9,2.4,1.7,3.7-1,8.2-2.2,16.4-3.3,24.7-.9,6.1-.9,6.1,5.3,6.2l38.6.6c2.4.1,4.7.2,4.5-3.3,0-1.2.6-2.3,2.1-2s1.2,1.6,1.2,2.7c0,7.4-1.7,14.5-3,21.7-5.5,28.9-8.7,58.2-12.9,87.4-1.2,8.5-1.7,17.1-2.5,25.7-.3,3.2.4,5.1,3.2,7.3,12.3,9.4,24.4,19,38.8,25.1,20.4,8.6,41.9,10,63.6,9.4a434.8,434.8,0,0,0,104-15.2l3.7-1.2c-2.9-2.5-5.6-4.7-8.1-7.2-8.4-8.6-12-19.9-15.8-31a365.1,365.1,0,0,1-10.9-38.4c-1.7-7.3-4.1-14.4-8.4-20.7-.5-.8-2.1-1.8-.6-2.8s2.7-.3,3.7,1.1a37.6,37.6,0,0,1,5.3,11.5c4.9,17,9.6,34,14.7,51a87,87,0,0,0,10.2,23.1c6.8,10.4,15.5,16.2,28.4,12.5a2.1,2.1,0,0,1,1.9.5c-3.4,3.1-7.8,3.3-11.8,2.3s-8.9,0-13.3,1c-10.1,2.4-20.2,4.8-30.4,6.9-3.7.8-4.8,1.6-3,5.5a729.2,729.2,0,0,1,30.2,73.9c5.6,16.5,10.6,33.2,15.3,49.9,1,3.3,2.2,4.6,5.9,4.7,25.9.5,51.8,1.3,77.6,2.2,4,.2,5.2-.9,5.2-5-.1-29.1-.9-58.2-2.6-87.3a25.5,25.5,0,0,1-.2-3.9c.2-1.6-1-4.2,1.8-4.2s1.7,2.6,1.8,4.2q3,49.5,2.6,99c0,3.7.8,4.9,4.5,4.5a113.7,113.7,0,0,1,11.7-.2c2.5,0,3.2-1.4,2.6-3.4s1.4-5.2-3-5.4c-11.2-.5-11.2-.6-11.4-12,0-2.3,0-4.6-.1-6.8s-.6-2.4.8-3,2.2.1,3.1.8c4.9,4,9.9,8,14.7,12.2,1.2,1.1,2.7,2.6.2,4.3s-1.2,3.3-1.1,5c1,15.6,2.4,31.1,1,46.8-.3,3.6,2.1,2.9,4.1,2.8l47.8-2.1c35.9-1.5,71.9-1.6,107.8-.7,4.9.1,6.7-1.1,7-6.2,1.9-28.4,3.1-56.8,1.3-85.3a141,141,0,0,1,.7-28.3,12.7,12.7,0,0,1,.6-2.8,1.8,1.8,0,0,1,2.4-1.1c1,.3.8,1.2.7,2-2.9,23.1.8,46.2,0,69.3-.2,3.7.8,4.9,4.7,4.8,37-.8,73.9-1.4,110.8-2,1.7-.1,3.4,0,5.5,0-1.4,2.2-3,1.4-4.3,1.5-37.5.6-74.9,1.4-112.3,1.9-3.8,0-4.6,1.3-4.8,4.7-.6,12.5-1.6,25-2.1,37.5-.1,4.5-.8,5.8-6.1,5.3-10.5-1-21.1-.5-31.7-.6-42-.4-83.9.7-125.9,3-9.5.5-9.4.3-9.3-9.3s.1-18.2-.4-27.3c-.3-3.9-1.7-4.6-5-4.3-5.1.3-10.1.3-15.2.3-1.8,0-3.8.5-2.9-2.8s-.8-3.7-3.5-3.8l-79.1-2.3c-1.3-.1-3.2-.9-3.4,1.5s1.9,2.9,3.9,3.2a339.7,339.7,0,0,1,63.7,14.5c7.5,2.6,14.5,6.2,18.8,13.2,8.8,14.4,22.4,22.8,37,29.9,20.4,10,42.1,16.3,63.8,22.6,14.5,4.3,29,8.6,42.9,14.6a32,32,0,0,1,12,8.3c5.2,5.9,5.9,13.5,1.6,20.2-6.5,10.2-16.6,14.7-27.9,17.1s-21,2.5-31.6,2.9c-47.7,2-95.3.3-143-1.7S527,789,479,780.5c-19.8-3.5-39.5-1.6-59.1,2.5-8.4,1.7-16.9,2.1-25.2-.5s-12.8-5.9-13.2-14.3c-.1-2.5-1.9-3.3-3.8-3.8-5.5-1.7-11.2-1.8-16.9-1.5-15.1.5-30.3,2.1-45.2-1.7-13-3.4-23.5-10.3-30.4-22s-5.3-26.4,5.1-36.6c6.4-6.3,14-10.5,22.2-13.9,17.7-7.4,36-13.2,54.2-19.4.9-.3,1.8-.7,3.6.6l-7.1,2.5c-16.3,5.7-32.7,10.8-48.6,17.5-7.3,3.1-14.1,6.7-20,12.1-12.8,11.7-13.9,28.1-2.6,41.3s23.9,17.1,39.2,18.1c11.4.6,22.8,0,34.2-.6a99.2,99.2,0,0,1,12.2-.1c3.5.3,6.3,1.9,7.1,6,2,10.1,7,14.4,17.3,15.3a69.8,69.8,0,0,0,21.4-1.4c22.9-5.4,45.9-4.6,68.8-.2,37.9,7.2,76.1,10,114.5,11.5,42,1.5,83.9,3.7,125.9,3.2,21.6-.2,43.3.2,64.8-3.3a44.6,44.6,0,0,0,18.5-7.1c13.2-9.1,13.1-23.5-.4-32.1-9.8-6.3-21.1-9.2-32.1-12.7-19.6-6.3-39.7-11.2-59-18.8a302.9,302.9,0,0,1-32.6-15.4c-10.5-5.6-19.4-13-25.9-23.1a32.4,32.4,0,0,0-17.6-13.2,361.5,361.5,0,0,0-60.7-14.2c-2.6-.4-3.7-.1-3,2.9a35,35,0,0,1,1.5,10.7c-.1,1.7-.5,3.4-2.6,3.4s-1.7-1.7-1.7-3.3-1.1-4.7-1.9-7c-3.9-11.8-8.8-23.1-13.6-34.5-.4-1-.6-2.2-1.7-2.9-9.6-6-18.8-12.8-29.5-17-4.2-1.7-5.4-.8-4.8,3.8,1.6,10.4,3.4,20.8,4.8,31.3.4,2.7,1.7,3,3.9,2.8,10.9-.6,21.7-.5,33.6-.2-2.4,2-4.1,1.5-5.8,1.5l-26.3.3c-1.6,0-4.6-1.1-4.3,2.3s2.9,1.9,4.7,2l28.3.7c1,0,2.7-.6,2.8,1s-1.8,1.5-2.9,1.5c-9.3-.2-18.6-.3-27.8-.7-3.5-.1-4.6,1-4.1,4.5,2.3,15.9,4.3,31.9,8.1,47.6.4,1.7,1.8,3.7-1.2,4.8s-5.4,1.7-7.3-1.3-3.2-7.1-4.3-10.9c-4.8-16.7-6.7-34.1-10.1-51.1a16.7,16.7,0,0,0-5.5-10.1q-21.3-19-44-36.4c-3.5-2.6-5.7-2.9-9.1.1-6.8,6-14.1,11.6-21.2,17.3a6.9,6.9,0,0,0-2.9,4.7c-1,6.5-2.1,12.9-3.2,19.3-.5,2.9-.5,4.1,3.4,4,25.7-.6,51.4-.4,77.1,1.5-2.1,1.5-4.6.7-6.9.6-23.4-1-46.9-1.7-70.3-.9-2,0-4-.3-4.6,2.8-1.3,6.2-1.2,6.5,4.9,5.1a240.7,240.7,0,0,1,75.7-4.2c1.3.1,2.7,0,3.6,1.2-1,2-2.8,1.3-4.2,1.1-25.7-2.9-51-1.1-76.2,4.2-3.9.9-6.1,2.4-6.2,6.5a6.3,6.3,0,0,1-.3,1.9,2.2,2.2,0,0,1-2.4,2c-1.7-.3-1-1.7-.8-2.8,1.2-7.5,2.5-15,3.7-22.6,5.4-32.2,10.7-64.5,16-96.7.3-1.6,1.8-4.2-1.6-4.5s-4.1.4-4.4,3.6c-2.4,34-10.1,67.2-14.7,100.9-.8,5.8-1.7,11.6-1.4,17.5.1,2.6-.2,5.6,3.7,6.7-5.7,1.7-7.6.5-7.5-4.8.5-14.5,3.1-28.7,5.3-43l1.7-10.8-14.9,12c-6,5-11.9,10-18.1,14.8-1.5,1.2-1.8,2.6-2.4,4.1s-.1,3.7,2.8,3.4a132.7,132.7,0,0,1,24.4.2c-1,2.1-2.5,1.2-3.7,1.2-6.5,0-13,0-19.5-.2-4-.1-6.1,1.2-7.2,5.4-2.9,10.6-6.4,21.1-9.6,31.6l-.8,2.4c-.4,1.3-1.1,2.6-2.6,2.2s-.6-2.2-.3-3.1c2.4-8.1,5-16.2,7.4-24.3,10.3-35.1,22.4-69.6,32-104.9a73.2,73.2,0,0,0,2.1-9c.3-1.9,2.5-4.4-1.5-5.4s-3.6,1.6-4.2,3.8c-4.2,14.5-8.3,29-12.7,43.5-9.2,30.7-18.5,61.3-27.7,92-.5,1.4-.7,3.2-1.7,4s-1.9,4.2-.7,6,1.7-1.5,3.3-1.4,2.5.2,2,2.1a5.2,5.2,0,0,1-3.6,3.7,3.8,3.8,0,0,1-4.4-1.5c-1.3-2-3-4.7-1.3-6.7,3.1-3.7,3.6-8.3,4.8-12.6,12.8-42.1,25.5-84.3,37.6-126.7,2.7-9.4,5.3-18.7,9.6-27.4,1.2-2.3,1.1-3.4-1.7-4-21.5-4.3-38.8-16.2-55.6-29.2-4.5-3.5-6.1-6.4-5.6-12.2,2-23.4,5.6-46.5,8.7-69.7.7-5.5,1.5-10.9,2.3-16.4.4-2.2,0-3.2-2.6-3.3l-57.6-2c-2.4-.1-2.9,1-2.8,3.3,1.1,38.9-1.5,77.7-.8,116.6.8,45.3-1.2,90.5-2.8,135.7-.2,4.9,1.3,5.9,5.9,5.8,22.9-.2,45.8-.1,69.5-.1-1.8,3.5-3.8,2.5-5.4,2.5-21.3-.3-42.6-.5-63.9-1.1-4.8-.1-7.3.9-6.3,6s-1.2,4.7-4.4,4.8c-5.2.1-10.4.4-15.6.4s-6.2-.1-6.2,6.3c-.1,8.8-.4,17.6,0,26.3.3,5-1.8,6-6,6.2q-25.7,1.5-51.3,1.5c-39,0-78.1-1.3-117.1.1-3.7.1-3.5-1.4-3.4-3.9.8-14.6,1.3-29.2,2.2-43.8.2-3.9-.8-5-4.8-4.7-30.9,2.2-61.8,1-93.9,2.3,3.4-2.2,6.1-1.7,8.7-1.8,25.7-.5,51.4-.2,77.1-1.3,12.8-.6,12.7-.6,13.6-13.4,1-16.8.1-33.6-.7-50.3-.2-4.2,0-8.4.1-12.7.1-1.4.5-2.7,2.2-2.6s1.4,1.5,1.4,2.6c-.4,23.9,2,47.7.2,71.7-1.4,17.5-1.7,35-2.6,52.6-.1,2.5-.3,4.1,3.3,4,43.2-2.2,86.3.5,129.4-.3,11.4-.3,22.8-1,34.1-1.4,3-.1,3.9-1.1,3.9-4-.5-38.9,1.1-77.8,1.4-116.7.2-12.3-1.2-24.7-1.9-37-.1-1.6.5-3.4.1-4.9-2.9-10.7,3.5-15.7,11.9-19.6q3.8-1.7,7.5-3.6c4.4-2.3,4.7-2.2,4.8,2.7.6,18.7.9,37.4.1,56.1-.3,8.1-1.1,16.2-1.3,24.4,0,2.6-1.4,2.6-3,2.5l-11.6-.8c-1.9-.2-3.3-.1-3.3,2.3.1,8.4.1,16.8.1,25.7,6.7-5.3,11.4-12.6,18.2-17.5l1.1,1-7,7.4c-2.6,2.6-5,5.6-7.9,7.9-6.3,4.8-5.8,11.2-5.1,19l14.1-15.1c1.1-1.2,1.9-3.2,3.8-2.3s.2,2.6.1,3.9c-.3,5.7-1,11.4-.5,17.1.2,2.5-.6,3.1-2.9,3.1-3.9-.1-7.8.2-11.7,0s-3.2,2.6-3.4,4.9-.1,4.4,3.3,4.5c5.2.2,10.4.2,15.6-.1,3.1-.1,3.7-1.4,3.8-4.2,1.1-43.2,3.1-86.5,3.1-129.8,0-11.1-.5-22.3-.6-33.4-.4-22.8,1-45.5,1.5-68.3.2-10.2-.4-20.5-.1-30.7.2-5-1.5-6.2-6.2-6.2q-57.5-.7-114.7-.3c-24.6.2-49.2.7-73.8.8-4.5,0-6,1-6,5.9.4,53.1.5,106.1.6,159.2a12.1,12.1,0,0,1,0,1.9c-.1,1.6.4,3.9-1.9,3.8s-1.5-2.5-1.5-4c-.2-26-.2-52-.3-78.1-.1-27.6-.3-55.3-.2-83,0-4.7-1.6-5.9-5.9-5.4-2.5.2-5.2-.2-7.8.2-4.2.6-4.9-1.6-4.9-5A269.2,269.2,0,0,0,76.5,346c-.4-3.6.2-4.4,4.4-4.1,11.5.7,23.1.4,34.7.4,51.4.4,102.8.7,154.2,1.3,4.2,0,5.1-1.2,5.1-5.1-.3-16.1-.4-32.3-.3-48.4,0-4-1-5.4-5.2-5-6.8.6-6.9.3-6.6,7.4a411,411,0,0,1,.2,44.4,13.4,13.4,0,0,0-.1,2c-.1,1.4-.1,3.3-2.1,3.2s-1.7-1.8-1.6-3.3a426.8,426.8,0,0,0,0-49.3c-.2-3.6-1.1-5.2-5-5-7.3.2-14.7.2-22-.2-4.5-.2-5.4,1.7-5.4,5.7-.3,15.1-.8,30.2-1.3,45.4a19.2,19.2,0,0,1,0,2.4c-.2,1.5.4,3.8-1.9,3.8s-1.7-2.3-1.7-3.7c.4-14.8.9-29.6,1.3-44.4.2-3.6-.8-8,1-10.4s6.4.5,9.9-.1,6.8-.2,10.2-.2c6.1,0,6.2-.1,6.1-6.3a81.2,81.2,0,0,0-4.1-24.5c-5.9-17.4-9.9-35.4-10.2-53.5-.3-13.8-2.1-27-4.4-40.4a12.8,12.8,0,0,0-.6-3.4c-5.7-11.8-6-24.7-7.2-37.4s-6.7-23.2-13-33.4c-2.8-4.5-8.2-7.7-11.3-12.4a30.6,30.6,0,0,0-11.5-10.8,13.6,13.6,0,0,1-6.9-7.8c-.5-1.5-.9-3,1.1-3.7s2,.9,2.7,1.9c2,2.9,4.1,5.7,6.2,8.5Zm34.9,286.3v-.5c-29.2,0-58.5.1-87.8,0l-54.7-.3c-2.1,0-4.7-.7-4.3,3.2a223.6,223.6,0,0,1,1.5,31.7c0,3,1.3,3.4,3.9,3.3,7.2-.2,14.5-.2,21.8-.3q79.4-1.5,158.6-1c32.5.3,65.1,1.1,97.5,2.7,3.2.2,4.6-.5,5.1-4,1.3-9.1,3-18.2,5-27.3.9-4.3.1-5.6-4.6-5.6Q298.2,346.6,227.1,345.4ZM476.5,520v.4c-4.9,0-9.8.3-14.6-.1s-5.2,1.3-5.6,5.1c-.6,5.7.1,11.6-3.1,16.9-.7,1.2-1.1,3.1,1.5,4.2,11.2,4.9,21.3,11.8,31.1,19.1,2.4,1.8,4,1.8,6.3-.1a118.1,118.1,0,0,1,12.2-8.8c1.9-1.2,1.9-2.3,1.4-3.9-3.1-10.3-6.2-20.5-9.1-30.7-.8-2.8-2.4-3.5-5-3.2C486.6,519.4,481.5,519.7,476.5,520Zm42.9,114.5c.1-.3.4-.6.3-.8-2.2-14.2-4.4-28.3-6.7-42.4a3.7,3.7,0,0,0-1.6-2.8c-4.7-3.3-9.3-6.6-13.7-10.1-2.2-1.8-3.7-1.8-5.8,0q-9,7.6-18.3,14.7c-2.6,2-2.3,3.1.2,4.9a485.1,485.1,0,0,1,43.1,35.1C517.6,633.7,518.2,634.7,519.4,634.5ZM291.3,550V515.1c0-2.5-.3-4-3.6-2.4-13.7,6.5-15.7,10-14.2,24.7a387.6,387.6,0,0,1,2.4,45.7c-.2,9.1-.2,8.8,8.9,9.6,4.4.4,5.2-1.2,5.4-5C290.6,575.7,291.5,563.7,291.3,550ZM541,709.4l1.1-.5c-1-4.5-2.1-9.1-2.8-13.7-6.4-37.3-10.3-75-17.5-112.2-2.4-12.2-4.3-24.4-6.6-36.5-.2-1.3.4-3.7-2.3-3.4s-5.2,3.1-4.3,6.2a238,238,0,0,1,8,38.2,1011.4,1011.4,0,0,0,18.5,102.1A136.5,136.5,0,0,0,541,709.4ZM447.3,577.3c-.1,2.7,12,11.4,14.3,10.5l.8-.5L484,571.4c1.6-1.2,1.7-2.1,0-3.3a220.9,220.9,0,0,0-29.1-18.6c-2-1.1-2.9-.5-3.3,1.6C450.2,559.9,448.7,568.8,447.3,577.3ZM424,584.6l-1.5-.2c-8,16.7-22,30.4-24.9,50.6,10.9-9,21.1-17.4,31.4-25.7,1.2-1,1.6-1.8,1.1-3.3C428,598.9,426,591.7,424,584.6ZM437.5,520c-3.8-1.4-5.2.6-6.7,3.6-4.7,9-7.1,18.7-8.8,28.7-.2,1.2-1.5,2.7.2,3.9l9.5,6.5c.1.1.8-.4,1-.8,2.3-4.2,6-7.8,6.6-12.9,1.1-7.7,1.8-15.4,3.4-23C443.7,521,442.5,519,437.5,520ZM314,311.4H303.8c-2.2,0-3.1,1-2.7,3.4,1.4,8.5,2.7,17,3.8,25.5.5,3.5,2.6,3.7,5.2,3.7s6.9,1.1,9-2.9c.1-.3.3-.8.2-.9-3.7-1.6-.6-3.2.1-4.7s1.5-2-.7-2.2-1-1-.4-1.6c2.4-2.4-.3-7,3.8-8.7.3-.1.4-1-.2-1.1-5.4-1.1-.3-2.4,0-3.3a5.1,5.1,0,0,1,2.5-2.3c1.4-.9,2.2-2.1,1.7-3.7s-2-1.3-3.3-1.3ZM538.6,552.5h-1.3c-.9,8.3-1.4,16.6-2.7,24.7-.9,5.4.3,9.1,4.1,13,7.4,7.4,14.1,15.4,21.2,23.2l.5-.3C553.2,593,545.9,572.7,538.6,552.5Zm-18.6-37-5.8.8c-1.7.2-2.2,1.2-1.6,2.7,4.1,11.2,5.7,23,7.7,34.6.4,2.6,1.4,2.5,3.1,1.1,3.3-2.6,6.6-5.3,10-7.8,1.8-1.3,1.6-2.6,1-4.6-2.6-8.7-7.7-16.3-11.2-24.6C522.6,516.3,521.9,515,520,515.5Zm53.4,119.8c.5-1.4.7-1.6.6-1.7-8.6-32.4-20.1-63.8-33.5-94.6-.5-1.2-1-3.3-2.9-2.3s-.4,2.6.1,3.8c8.5,20.9,15.7,42.3,23.4,63.6C564.8,614.3,569,624.3,573.4,635.3Zm-42.6-54.1c1.1-10.7,2.2-21.1,3.4-32.6l-12.1,9a2.2,2.2,0,0,0-.7,1.7C523.4,566.8,521.3,576,530.8,581.2Zm-26-63.6c-.2,2.6-6.2-2.4-4.6,2.8s3.7,12.7,5.8,18.9c.7,2.3,2.2,3.2,4.4,2.2s4.2-1.4,3.4-4.4c-1.7-5.7-3.3-11.5-4.9-17.2C508.4,518.1,507.5,517,504.8,517.6Zm-63.4,98,22.4-18.1c1.2-1,1.6-1.8.1-3s-4.1-3-6.7-.5-5.7,5.1-9,6.6C442,603.5,441.7,608.7,441.4,615.6Zm51.1-40.9-2.7-2.2c-1.4-1.4-2.5-.6-3.8.3-6.4,4.9-13,9.6-19.4,14.5-1.2.9-4.2,1.4-2.4,3.6s3.5,3.7,6.5,1.1c6.3-5.4,12.8-10.4,19.2-15.6Zm41,15.1c-.3,2.3-.4,3.4-.6,4.5-1.2,8.8-1.1,8.7,6.8,12.4l15.7,7.7A290.4,290.4,0,0,0,533.5,589.8Zm-101.8,7.5,1.1-.2c1.2-7.8,2.5-15.6,3.7-23.4.4-2.7-2.2-5.4-4-4.7s-6.4,10-5.9,11.8ZM418.4,569c-1.9,3.3-10.1,29.1-10.7,34.3,3.9-6.5,6.8-12.6,10.8-17.7S421.1,574.7,418.4,569Zm92.4,15.5,1.2-.5c-.9-5.5-1.9-11.1-2.9-16.6-.4-2.2-1.3-1.5-2.6-.7-10.3,6.2-10.3,6.7-1,13.8ZM453,523.8c.2-1.6.6-3.4-2-3.4s-4.1-.5-4.5,2.4-1.2,8.6-1.7,13c-.2,1.7-1.3,4.1,2.2,4s4.7.4,4.8-3.5S452.6,528,453,523.8Zm-23.4-4.4c-2.7-.6-5.1-2.6-6.7,1.2s-4.5,10.1-6.6,15.1c-.6,1.4-1.2,2.9,1,3.5s3.4,1.3,4.3-1.2C423.7,531.6,426.6,525.7,429.6,519.4Zm13.9,80.9c2.7-.5,3.9-2,5.3-3,10.4-7.7,10.4-7.7-1.5-13.8h-.9C445.4,588.9,444.5,594.4,443.5,600.3Zm-169.3,45h11.5c1.6,0,2.8-.3,2.8-2.3-.1-4,0-8,0-12.4C283.1,634.9,279.1,640,274.2,645.3Zm407.1-14.7c-1.2,2.7-.7,4.9-.7,6.9-.1,6.4.9,7.2,7.4,6.7,1.3-.1,2.7.1,3-1.7s.9-3-.8-4.4S684.6,633.4,681.3,630.6ZM507.7,560.3a6,6,0,0,0-.9-1.8c-.8-.8-1.5.1-2.1.5-3.7,2.7-7.4,5.4-10.9,8.2-.9.7-3.3,1.1-1.4,3.1s2.3,2.3,4.1.7,6.6-5.3,9.9-7.9A2.8,2.8,0,0,0,507.7,560.3Zm-83.1,13.8c6.4-7.6,6.4-7.8-.8-13l-.8-.7c-.8-.5-1.7-1.4-2.5-.8s-.7,1.7-.4,2.7C421.6,566.1,423,569.8,424.6,574.1Zm111.8-39.3,1.2-.5c-2.2-6.5-5-12.8-7.8-19a1.8,1.8,0,0,0-2.5-.9,1.4,1.4,0,0,0-.5,2.1Zm-10.9,47.5c1,5.4,1.1,10.3,3.3,14.7C528.6,592.2,533,586.6,525.5,582.3Z"/><path d="M475.5,315.8c.6,1.1,2,1,3.2,1.3,13.2,3.3,23.8,10.3,30.6,22.3,1.7,3.1,3.8,4.1,7.3,4,11.1-.3,22.1-.1,33.2-.8-7.6-1.6-15.2-1.3-22.8-1s-8.3-2.4-6.3-8.8a11.2,11.2,0,0,1,3-5c5.5-5.4,10.7-4.1,13,3.3,1.7.2,1.6-1.3,2.1-2.2a12.4,12.4,0,0,1,4-4.8,10.5,10.5,0,0,1,11.5-1.1c4.1,2.1,4.1,6.2,3.5,9.9s.2,4.8,4,4.4,5.2.2,7.8.3,5.9,0,6.7-3.9a1.7,1.7,0,0,1,2.7-1.1c1.2.7.4,1.8-.1,2.6a8,8,0,0,1-5.7,3.3c-3.9.9-7.8.3-11.6,0s-4.8.5-6.2,3.7h28.1c3.2-.1,7.6,1.3,5.6-4.9-.2-.5.4-1.5.8-2.2,4.6-7,19.2-8.1,25-1.9,1.4,1.5,2.6,3.3,2,5.2s.6,3.4,3.2,3.4c9.9.1,9.7.2,10.1-9.6,1.2-33.9-1.4-67.6-3-101.4-.5-9.1.1-18.3-.2-27.4-.1-4.2,2-5.8,5.7-6.2a44.1,44.1,0,0,1,7.2-.8c5,.2,8.6-2.2,11.9-5.4a15.8,15.8,0,0,1,11.7-4.9,134.8,134.8,0,0,0,14.2-.5c4.6-.5,6.5,1.6,6.8,5.9.2,1.4-1,3.8,1.3,4.1s4.3.2,4-3.3c-.1-1.6,1.6-1.6,3-1.3,2.9.6,6,1.5,8.2-1.8a1.9,1.9,0,0,1,1.7-.6c3.4,3.3,7.7,1.3,11.5,1.8,2.3.3,3.4,1.4,3.6,3.8,2.2,31.8,8.6,63.2,11.1,94.9,1.3,15.8,2.6,31.5,2.8,47.3.1,1.5.6,3.7-1.8,3.8s-1.5-2.2-1.5-3.4c-1.2-44.5-7.8-88.4-13.8-132.4a37.7,37.7,0,0,1-.4-5.8c-.2-5.2-3.2-7.2-8.1-5.6-2.3.8-1.4,2.6-1.2,4.1,2,13.5,4,27,6.2,40.5,5.6,32.6,8.2,65.5,10.4,98.5.4,4.8,1.7,6.4,6.6,6.2,7.5-.3,15,.1,22.5.1,1.3,0,3.2.8,3.5-1.4,1.2-8.6,7.6-10.5,14.6-10.6,4.7-.1,6.5-2,7.8-6s3.9-9.3,5.8-14,4.5-7.8,9.3-9c.6-1.1-.3-1.6-.6-2.2-4-7-.8-13.1,8-13.9,4-.3,6-2.1,8.2-4.8,14.7-18.3,29.1-36.7,43.1-55.5,1.8-2.5,2.7-3.8-.7-5.9s-3-5.4-.8-8.2,1.6-3.2-.5-5l-59-49.6c-1.2-1-2.3-2.3-4.3-2.1-3.9.4-7-1.2-8.5-5a5.8,5.8,0,0,1,1.3-6.7c2.9-2.8,6.7-4.2,10.3-2.5s4.3.3,6-1.7c15.2-17.3,33.4-31.4,50.5-46.6,1.5-1.4,3.7-2.4,1.1-4.6a1.2,1.2,0,0,1-.5-.9c1.8-7-4.3-8.8-8.1-12-15.6-12.8-31.3-25.5-46.8-38.3a64.2,64.2,0,0,1-6.9-6.9c-.6-.6-1.6-1.5-.7-2.4a2,2,0,0,1,2.7-.1,6.2,6.2,0,0,1,1.4,1.4c18.1,17.9,38.8,32.6,58.3,48.7,1.8,1.5,3.2,1.7,5.2.4s5.1-2.4,9.5-1.1c-5.7,1.2-10.8,1.7-11.3,8.8,1.7-1.7,2.2-3.7,4.7-3.6-.1,2.3,1.9,4.6-1.4,6.8,5.1-.5,6.3-1.9,5.9-6.4-.1-1.3-1.5-3.1.9-3.5s2.7,1.9,2.8,3.7c.1,3.9-3.4,7.7-8.3,8-3.2.1-5.4,1.5-7.7,3.5-14,12.6-28.8,24.3-41.9,38-1.7,1.8-3.1,4-5.1,5.3-5.6,3.7-5.1,10.3-7.7,15.4-.7,1.4.9,2,1.7,2.7l59.3,50c1.4,1.1,2.7,1.6,4.4,1s4.5-1.1,6.6.5c-.6,1.9-2,1.7-3.1,1.2-3.3-1.5-5.3.4-7,2.7s-2,4.9-.2,7.2,5.2,2.2,7.6,1.3,3.8-3.6,3-6.5c-.3-1.4-1.6-2.9,1-3.2s2.9,1.5,2.9,3.2a8.1,8.1,0,0,1-6.9,8.3c-3.5.8-5.5,2.9-7.5,5.6-14.3,19.5-29.3,38.6-44.6,57.4-1.5,1.8-2.3,3.3-1.5,6,1.7,5.5-.3,9.8-5.4,12.7-1.7,1-1.2,1.7-.9,3,1.7,7.4,3.3,14.9,4.7,22.4.4,2.4,1.3,3.8,4,3.7a48.5,48.5,0,0,1,5.3.8c5.3.5,8.9,3,9.7,8.6.3,2.8,1.6,3.7,4.4,3.7l46.9,1.4h1.4c6.6-.6,7.2-.2,6.5,6.5a230.5,230.5,0,0,0-1.1,24.9c.1,3.6-1.6,5.3-5.2,5.4-7.9.3-7.9.3-8.4,8.6-1.2,18.7-.5,37.4,0,56.1.6,28-1.9,56-2.5,83.9-.2,7.7,0,15.3,0,23,0,1.6.8,4.1-2,4.1s-1.4-2.5-1.5-3.9c-.6-18.9.2-37.7,1.3-56.6,1.6-25.2.9-50.4.6-75.6-.1-11.7-.4-23.5,1.1-35.1.5-4.1-.9-5-4.6-5.1L781.1,380c-34.5-.7-69-.6-103.5-.6-4.5,0-5.8,1.4-5.6,5.8,1.8,51.2-1.4,102.5.2,153.7a20.9,20.9,0,0,1,0,2.5,1.9,1.9,0,0,1-1.9,1.8c-1.4,0-1.4-1.1-1.4-2.1-.3-6.3-.7-12.6-.7-19,.2-34.3.5-68.6.7-103,0-11.7-.3-23.4-.3-35.1,0-3.3-.8-4.5-4.4-4.5q-66.9.9-133.7,3.1c-2.6.1-5.6-.2-3.8,4.1.4,1-.3,1.5-1.2,1.7s-2.2-.8-2.7-2.1c-3.8-9.1-7.7-18.2-10.1-27.9s-4.5-16.3-10-23c-10.3-12.8-24.2-18.5-40.1-19.1-18.5-.6-37.1-.5-55.6-.5a44,44,0,0,0-10.2,1.4c-8.2,2-14.6,6.3-17.2,14.9-.4,1.5-1.2,3.6-3.2,2.7s-.2-2.6.3-3.8c2.8-7.4,8.6-11.7,15.9-14,12.7-4.3,26-3.4,39.2-3.4s26.1,2.4,38.9,1.4c14.8-1.2,29.4-.4,44.1-.6,27.1-.3,54.3,0,81.4,0h3.4c8.6-.4,11.1-2.8,11.1-11.3.1-19.5-.1-39.1.1-58.6.3-30.4-1-60.9.8-91.3.2-4.5.7-9.1,1.3-13.6,1.5-10.5-.8-13.3-11.4-13.2a4.5,4.5,0,0,1-2.3-.4,22.8,22.8,0,0,1,13.9-.4c2.8.9,3.6,3.3,3.6,5.9s-.3,6.1-.6,9.2c-3.6,37.7-1.5,75.5-1.5,113.2,0,16.1.1,32.2-.5,48.3-.3,10.4-2.9,13.5-13.4,13.6-20.7.3-41.4.1-62,.1Zm220.3,62c43.8-.1,82.3.5,120.9,1.3,19.2.4,38.4,1,57.6,1.5,1.5,0,4.2,1.3,4.1-2.2a165,165,0,0,1,1.3-26.3c.5-3.7-1.1-5-5-5.1q-80.9-3-161.8-3.7c-60.5-.5-121-.4-181.5,1l-15.6.3c-2.1,0-3.5.1-2.6,3,3.3,10,6,20.3,10,30.1,1.3,3.2,2.8,3.8,6.1,3.7C586.5,378.9,643.7,378.2,695.8,377.8ZM655.3,190.6c-4.1,3.1-5.9,6.2-6.1,10.5-.4,11.4-1.4,22.7-1.8,34.1-.6,13.5-.9,27-1.3,40.5-.1,1.5.4,3.8-1.9,3.9s-1.6-2.3-1.6-3.6c.1-22.5,1.2-44.9,2.6-67.3.8-13.1,3.3-11.2-10.5-10.1-3.2.3-4.1,1.7-4.1,4.7.1,5-.2,10.1-.2,15.1.2,20.7,2.2,41.3,3.1,61.9.2,4.6,1.5,6.3,5.9,5.4a19.4,19.4,0,0,1,2.4-.2c11-.8,10.9-.8,10.8-11.9-.1-2.3-2-6.3,1.6-6.5s1.7,3.9,1.8,6.1c.6,12.8.5,12.7,13.5,11.3,3.6-.4,4.5-1.8,4.7-5.1.6-13.2,2-26.3,2.3-39.5s3.2-28.1,3.7-42.3c.4-10.1.4-10.1-9.6-9.9-2.4,0-4.8.3-7.3.2s-4.3,1.4-4.3,4.6c-.2,13.4-.6,26.7-1,40.1-.2,5.3-.6,10.7-.8,16-.1,1.6-.4,3.2-2.3,3s-1.2-2.1-1.2-3.2c.2-6.3.7-12.7.9-19C654.9,216.8,655.8,204.1,655.3,190.6Zm9.8,151h27.8c2,0,3.5.1,3.3-2.7q-1.7-25.8-3-51.6c-.2-3.4-1.3-4.5-4.8-3.9-16.8,2.8-34,2.5-50.9,4.1-2.7.3-3.7,1-3.7,3.8.1,15.4,0,30.9-.3,46.3,0,3.5,1.3,4,4.3,4C646.9,341.5,656,341.6,665.1,341.6Zm44.1.2h3c7.1-.1,6.3.9,5.8-6.3q-2.2-27.6-4.8-55.4c-2.6-28.3-8.5-56.2-12.2-84.4-.4-3.1-1.8-3.6-4.6-3.2s-2.1,2.9-1.7,4.7c1.4,7.2,3.2,14.3,4.5,21.5,5,26.7,6.5,53.8,8.6,80.9,1,12.7,2.1,25.3,3.2,37.9.1,1.3.4,2.3-1.2,2.6s-1.9-.9-2.1-2a28.9,28.9,0,0,1-.4-2.9c-1.7-20.4-3.3-40.9-5.1-61.3-2.1-24.5-4.7-48.9-10.5-72.8-.4-1.9.1-4.9-3.6-4.6s-4,2.7-4.1,5.4a207.4,207.4,0,0,0,2,27.2c1.7,12.4,6.4,24.2,8.3,36.6,3.5,22.2,3.8,44.7,5,67.1.2,2.8-.9,7,.1,8.2S705.2,341.5,709.2,341.8Zm79.5.7v1.1h25.8c1.8,0,4.6,1.2,5.3-.6s-1.1-4.5-2.8-6.3a8.9,8.9,0,0,0-5.2-2.6c-14.9-1.9-30-3.4-45-1.2-3.2.4-6.4,1.8-8,5s-1.8,4.8,2.6,4.7C770.5,342.4,779.6,342.5,788.7,342.5ZM680.8,226.9c-.8,15.1-1.8,30.1-2.6,45.2s-4,12,11.7,10.1c2.6-.4,2.6-1.7,2.5-3.6C691.2,260.8,684.1,244.3,680.8,226.9ZM790,330.1v.4c2.8,0,5.5-.2,8.3,0s3.3-.7,2.8-3c-1.2-6.4-2.3-12.8-3.7-19.2-.4-2.2-1.3-4.5-4-5s-4.1,1.6-5.5,3.4c-4,5.4-6.1,11.8-8.4,18.1s-1.8,5.3,3.7,5.3ZM546.8,340.3c2.9.1,5.5.4,6.5-2.6s1.6-7,.3-10.5a5.2,5.2,0,0,0-5.6-3.8c-4.1.3-8.3,6.9-7.9,13.2C540.4,341.2,544.6,339.6,546.8,340.3Zm45.8-4.1c6.1.4,11.2,1.5,15.6,4.9a2.3,2.3,0,0,0,2.7.2c.9-.6,2.6-.3,2.5-1.9a8.6,8.6,0,0,0-2.9-5.9C606.4,330.1,598.3,331,592.6,336.2Zm-58.9.5c-1.3-3.4.9-8.8-4.4-10.3-2.7-.7-5.9,5.2-5.7,9.6s3.2,4.7,6.5,4.6S535,340.6,533.7,336.7ZM803.4,293c-.3-2.9-.6-5.7-4.2-5.5s-6,1.6-6.4,5.4a6.1,6.1,0,0,0,5.8,6.8C803.7,299.9,802,295.2,803.4,293ZM789.3,147c-1.3-2-1.4-5.2-5-5s-4.6,1.8-4.5,4.6a4.8,4.8,0,0,0,5,4.9C787.2,151.5,789,149.8,789.3,147Z"/><path d="M780.4,513.5c-23.6,0-47.2-.1-70.7.1-3.9,0-4.3-2-4.3-4.9,0-8.1-.1-16.3-.1-24.4,0-22.6-1.7-45.2-3-67.8-.3-6.1-.3-12.3-.3-18.5s.8-6.8,6.8-6.8l83.4-.7c18.6-.2,37.1.4,55.7-1a11.1,11.1,0,0,0,4.7-.8c3.9-2,5.3-1.3,5.4,3.1s-.3,9.1-.3,13.7c.2,21.3,1,42.6-.2,63.9-.7,13.5-1.5,27-1.9,40.5-.1,3.3-1.5,4.1-4.5,4l-44.4-.5H780.4Zm-23-121.4v.7c-13.2,0-26.4-.1-39.6,0s-13,0-12.4,13c1,21.6,2.3,43.2,3.2,64.8.6,11.7.4,11.7,11.6,10.2,1.6-.2,3.7.3,4.3-1.6s0-3.4-1.6-5.1c-3.3-3.4-1.9-7.8-.8-11.6s3.9-.2,5.9-.6a54.4,54.4,0,0,1,5.8-.5c20.6-1.8,41.2-2.2,61.9-2.2,6.7,0,13.6-1.1,20,2.4,3.4,2,4.7.9,4.6-3.1-.1-20.7,0-41.3,0-62,0-2.7,0-4.6-3.8-4.6s-4.2,1.5-4.1,4.7c.2,18.8.3,37.7.4,56.6,0,1.1,0,2.2-.1,3.4a1.6,1.6,0,0,1-1.6,1.5c-1,.1-1.5-.6-1.6-1.5s-.1-2.6-.1-3.9c-.2-18.7-.5-37.4-.5-56.1,0-3.6-1-4.7-4.7-4.6C788.6,392.2,773,392.1,757.4,392.1Zm97,35.6c0-9.6-.1-20.6.1-31.7,0-3.1-.6-4.4-4-4.3-7.5.3-15,.4-22.4.2-3.3,0-4.5.7-4.4,4.3.2,20.1,0,40.3.2,60.5,0,9-1,7.4,7.2,8.4,4.7.7,7.1,2,7.1,7.6s-1.7,10.3,4.8,12.8c1.5.6.7,2.6.3,4a19.7,19.7,0,0,0-1.5,5.1c0,2-2.1,5.1,2.4,5.4,7.5.6,8.3.3,8.6-4.6C854,473.4,855.1,451.3,854.4,427.7Zm-45.7,46.1c1.8-1.9,3.8-1.4,5.7-1.3,5.5.2,11,.8,16.5,1,1.4.1,3.7.8,3.8-1.7s-.3-4.4-3-4.8a33.8,33.8,0,0,0-6.3-.7l-81.9,1.1c-2.9,0-4.3.9-4.4,3.8s2.8,2.1,4.3,2.1l58-1.4c1.4-.1,3.2-.8,4.1,1.1-1,1.2-2.2,1.1-3.3,1.2l-26.4.8-30.2.6c-1.6.1-5-.7-3.9,2.5,2.1,6.3,1.8,13.1,4.4,19.3,1.1,2.5,2.4,3,4.8,2.9l76-.4c10.4-.1,10.3,0,12.8-9.7.6-2.5.2-4.3-2.5-4.7s-2.5-1.1-2.1-3.4c1-5.3-.7-7-6.1-7.2Zm-28.4,37.8H827c7,0,14,.2,21,.1,1.3,0,2.9.6,3.8-1.2,2.4-5,.2-8.9-5.2-8.9-20.3-.1-40.7-.3-61-.1-23.9.2-47.7.7-71.6,1.1-2.7,0-5.1-.2-5.2,3.9s1.1,5.1,5.1,5.1C736,511.5,758.2,511.6,780.3,511.6Zm-38-10.6c0-.5.1-1.1.1-1.6s-3.5-1.2-5.3-1.9l-6-2c-6.4-2.4-7.1-3.4-5.9-10.2.5-2.7.1-3.6-2.7-3a24.7,24.7,0,0,1-3.8.5c-9.8.9-9.8.9-9.8,10.4,0,1.7.1,3.3.1,4.9s.5,3,2.7,3Zm-7.4-37.3c26.2,2.9,52.4.4,78.6.4-2.7-2-5.5-3.4-8.6-3.5C781.6,460.2,758.2,460.7,734.9,463.7Zm-9.9,5.4c1,3,3.2,6.8,4.6,10.9.8,2.5,5.5,3.3,8.2,2.5s.6-4.6-.6-5.5c-2.9-2.3-1.8-4.5-1-6.9s-.3-4.4-3-4.8a47.8,47.8,0,0,0-5.3-.6C725.6,464.5,724.6,465.6,725,469.1Zm15.4,22.6c1.9-6.3-3.5-5.6-7.2-6.5-1.4-.3-3.5-2.3-4.5.6s-.9,5.2,2.3,6.5,4.3,1.5,6.4,2.4S741.5,495.4,740.4,491.7Z"/><path d="M111.7,579.6c0-18.1.1-36.1,0-54.2,0-3.7.3-5.4,5.2-4.3s11,.2,16.5.1q63-.6,125.9.1c4.4,0,5.8,1.1,5.7,5.7-.5,32-.8,64-1.1,96,0,4.2.2,8.5.2,12.7,0,1.6.1,3.5-1.6,4.3s-2-.8-2.8-1.9-2.7-.7-4.1-.7l-137.1,1.1c-6.8,0-6.8.1-6.8-6.7-.1-17.4-.1-34.8-.1-52.2Zm21.4,5.3c4.3.9,6.7.2,6-4.9s.3-7.9-.6-11.7c-2.8-11.1,1.6-17.5,11.8-21.6,5.7-2.4,10.7-5.4,17.4-4.9,11.2.7,22.4.5,33.7.7,15.6.1,31.1.1,46.7.4,11.5.3,13.4-1.3,13.2-12.6a14.2,14.2,0,0,1,.2-2.9c.4-3.3-.9-4.5-4.3-4.5q-68.5-.9-137.1,0c-4,0-4.8,1.4-4.8,5.1.1,30.4,0,60.8,0,91.2,0,1.5-.5,3.2.8,5.1a43.4,43.4,0,0,1,6.4-5.1c3.4-2,3.9-4.5,3.1-8.1-1.2-5.6-.6-11.4-1.3-17-.9-7.5,3.9-10.4,8.6-13.7.9-.6,2-1.1,2.7-.1s-.5,1.7-1.1,2.4S133,583.4,133.1,584.9Zm53.7.6c-15.4.8-35.1,1.8-54.7,2.5-3.4.1-4.1,1.5-4.1,4.4,0,7.7.8,15.3,1.5,22.9.4,4.6,2,5.1,5.8,5,10.2-.1,20.5.1,30.7.2,26.9.3,53.7.6,80.5-1.6,2.6-.2,5-.4,4.8-3.9-.5-8.5.3-16.9,1-25.3.2-2.6-.6-3.5-3.2-3.4C229.7,587.2,210.4,585.1,186.8,585.5Zm4.2-2.8c14.8-.4,29.5,1,44.3,1.2,3.4,0,4.3-1.1,3.9-4.2a114.5,114.5,0,0,1-.7-23.4c.2-2.9-.9-3.5-3.6-3.4-21.1,1-42.3.4-63.4.7-8.8.1-17.5.8-26.3,1.1-3,.1-3.8,1.4-3.6,4.3.5,6.9.9,13.9,1,20.9,0,3.8,1.1,5.1,5,4.8C162.1,583.9,176.5,583.4,191,582.7Zm-3.5,54.7v-.7h6.3c20.7-.1,41.3-.3,62-.3,3.4,0,4.9-1,4.4-4.4s-3-2.1-4.7-2.1c-26.8-.6-53.7-1.2-80.5-1.5-18.6-.2-37.1.1-55.7.1-3.1-.1-4,.9-4.2,4.1s1.3,4.9,5,4.9C142.6,637.3,165,637.4,187.5,637.4Zm-68-11.9c1.7,1.3,3.4.9,5,.8,23.7-.4,47.5-.2,71.2.2l60.1,1.1c1.4,0,3.7,1,4.2-1.2s1.2-5.9-.2-8-3.4.7-5,1.3-3.6.2-5.3.3c-40.3,3.8-80.7,1.6-121,1.5C124.5,621.5,121.9,622.2,119.5,625.5Zm27.6-74.1a1.7,1.7,0,0,0,2,1.1c29.5-2.2,59.2.1,88.8-1.6,5.4-.3,8.6-2.7,11.8-6.8-27.3-.7-54.4-.4-81.5-.9C159.5,543.1,153.9,548.1,147.1,551.4Zm95.5,28.2c11.9-6.4,22.1-12.9,18.6-28.3-.2-.9.3-1.9.2-2.8s.6-5.3-1.1-6.3-3.7,1.3-5.6,2.2a69.1,69.1,0,0,0-8.6,5.4c-2.9,2.1-4.8,4.8-4.6,8.5C241.9,565.2,242.2,572.2,242.6,579.6Zm12.6,37.5c2.7-.8,5.3-1.2,5.3-4.7v-29c-2.6.5-4.2,1.5-4.5,4.3A179.7,179.7,0,0,0,255.2,617.1Zm-12.5-34.7c16.8,2.1,20.2-.1,17.4-12.8Z"/><path d="M186.7,389.1c23.4,0,46.9.2,70.3-.2,4.9,0,5.4,1.6,5.4,5.7-.2,36.1-.5,72.3-1.3,108.4-.2,7.9-.1,7.8-8.1,7.7-44.1-.6-88.2.2-132.2,2.1-10.4.5-9.6,2.7-10-9.1-1.2-34.2.1-68.4-.1-102.5-.1-10.5,0-10.7,10.6-10.7,21.8-.1,43.6,0,65.4,0Zm69.7,77c-2.8,1.4-4,3.4-3.6,6.6.3,1.6.5,4.2-2,4s-1.6-2.6-1.4-4c.5-4.1-1.3-5.4-5.2-5.3-5.9.2-11.7-.1-17.6-.2-23.9-.6-47.8-.3-71.6.3-1.6,0-3.8-1-4.8,1.3a6.7,6.7,0,0,0,6.2,9.4l84.4-.2c3.4,0,6.8.2,10.2-.1s6.2-.6,6.8-3.5,2.2-6.1-1.5-8.2c1.7-.7,2-2.2,2-3.9q.1-33.7.5-67.3c.1-3.2-1-4.2-4.2-4.2-28.9.3-57.8.6-86.8.7-3.3,0-4,1.3-4,4.3-.1,22-.1,43.9.8,65.8.1,3.4,1.1,4,4.1,4,17.6-.2,35.1-.3,52.7-.2C233,465.4,244.7,465.9,256.4,466.1ZM114.2,445.4H114v21.4c0,9.6-.1,19.2,0,28.8,0,1.4-.6,4.1,2.2,3s5.4-.4,8.3,0c5.1.6,10.4-.2,15.6-.2,2.6-.1,3.1-1,3.5-3.7.9-6.3-3.2-13.5,3.1-18.9.3-.2,0-1.2,0-1.9-.1-7.9-.1-7.9,7.8-8.1h2.9c3.1.3,4-1.1,3.7-4s-.5-8.8-.5-13.2c-.2-17.5-.3-35.1-.3-52.7,0-3.2-.9-4.1-4.1-4.1s-3.9,2-3.7,4.9a599,599,0,0,1,1,61.4c0,2,1.2,5.5-2.3,5.3s-1-3.3-1-5c.5-20.8-.1-41.6-1.3-62.4-.2-3.2-1.1-4.2-4.3-4-8.4.3-16.9.5-25.4.3-4.2-.2-5.1,1.5-5,5.3C114.3,413.5,114.2,429.4,114.2,445.4Zm134.5,44.3c0-2.1-.2-4.2,0-6.3s-1.1-4.3-4.5-4.3c-29.1.2-58.2.1-87.3.2-9.6,0-9.6.1-9.9,9.6s-.2,9.1,9.1,9c28-.2,56-.6,83.9.5C251.4,498.9,249,500.1,248.7,489.7Zm-64.8,18.6c23.7-.6,45.6-.7,67.6-.2a25.4,25.4,0,0,0,3.9-.1c3-.4,2.1-2.8,2.1-4.6s.4-2.5-1.9-2.5c-11.3,0-22.7-.4-34-.6-34.2-.6-68.4-.3-102.5,1.1-1.6,0-3.7-.9-4.6,1.4-1.6,4.1.9,7.7,5.3,7.4C141.7,509.2,163.7,508.4,183.9,508.3Zm73.9-20.2h.2v-5.8c-.1-1.1.6-2.4-.8-3s-2.1.5-3.1.9-2,2.4-1.9,4.1c.2,3.7.3,7.4.6,11.2.1,1.1-.5,3.1,1.3,3s3.7-.6,3.7-3.1S257.8,490.5,257.8,488.1Z"/><path d="M702,639.2c1.3-2.8,3.2-1.8,4.6-1.9l138.6-1c6.4,0,8.5-2.6,7.7-8.6-.2-1.3-.4-2-2-2-46.8-1.2-93.6-1-140.3.9-3.9.2-5.9,1.2-5.5,5.3a9.1,9.1,0,0,1-.4,3.3,1.9,1.9,0,0,1-2,1.2c-1-.1-1.2-.9-1.2-1.8a12.1,12.1,0,0,1,0-1.9c1.9-22.2,0-44.3-.1-66.4-.1-13.1.6-26.3.9-39.5.1-2.6.8-3.4,3.7-3.5,47.2-2.2,94.3-1,141.5,0,7.4.2,7.6.2,7.6,7.7.2,24.4.2,48.8.4,73.2.1,8.1.8,16.2.8,24.3s-1.9,10-9.7,10.1l-141.5.9ZM812.2,523.8c-12.3,0-23.3.1-34.4,0q-34-.4-68.3,1.1c-2.7.1-3.6,1.1-3.7,3.7-.1,7.4-.5,14.7-.7,22-.7,23.1,2.3,46.2.7,69.3-.3,4.6.6,6,5.6,5.8,42.1-2.2,84.2-2.5,126.3-1.7,1.8.1,3.8,1.1,4.9.2-6-6.6-12-13.2-18.2-19.6-3.6-3.7-6.1-7-6-13.2.4-20.5-1-41-.3-61.5,0-1.5-.5-3.8,1.9-3.8s1.5,2.5,1.5,3.8c-.3,21.5.2,43,1,64.4,0,1.4-.5,2.9.8,4.2l25.4,24.9c.9.8,1.9,1.4,3.1.9s1-1.9.9-3c-.2-5.3-.7-10.7-.8-16-.2-25.1-.2-50.2-.3-75.2,0-2.5.2-4.9-3.6-5-10.4-.1-20.8-.2-31.2-.7-3.1-.1-3.2,1.3-3.3,3.7-.7,19.8-1.5,39.7-2.4,59.5-.2,5.7-1.5,6.9-7.3,7.1h-2.9c-23.1-.7-46.2-1.3-69.3-.7-7.7.2-15.4,0-23.1,0a23.9,23.9,0,0,1,6.5-1.1c29.1-.7,58.2-.9,87.3.5,4.2.3,5.3-1,5.4-5,.6-19,1.4-38,2.2-57C810,529,809.7,526.7,812.2,523.8Z"/><path d="M609.2,287.8c-1.3,2.6-3.5,1.7-5.2,1.7l-116.2.4-122,.5c-4.5,0-5.8,1.5-5.4,5.6.4,2.5.5,5.1.8,7.7.6,4.6,3.1,7.3,7.5,8.6s11.2,1.7,16.9,1.4c2.6-.2,5.1-.8,7.6,0,0,1.5-1.2,1.4-2.1,1.5-8.3.8-16.6,1.1-24.8-.6-6.1-1.2-7.9-3.1-8.8-9.3s-.1-14,0-21c.5-34.5,2.6-68.9,1.7-103.4-.3-12.2-1.1-24.4-1.7-36.6-.1-1.8-1.2-4.6,1.8-4.6s1.6,2.7,1.8,4.3c2.3,30.7,2.2,61.4,1.2,92.2-.5,15.4-.6,30.9-1.3,46.3-.2,4.4,1,5.5,5.3,5.5,58.8-.4,117.5-.5,176.2-.7l61-.3C605.3,287,607.3,286.6,609.2,287.8Z"/><path d="M857.4,686.7c-8.2.4-16.4.9-24.6,1-40.7.8-81.3,1.3-122,2.2-4.8.1-6.9-.7-7.3-6-.7-9.4-2.7-18.7-2.3-28.2.2-6.5,1.1-7.4,7.7-7.7,40.8-1.8,81.6-2.4,122.4-1,6.7.3,13.3.6,20,.6,3.8.1,5.3,1.3,5.1,5.4-.6,9.1-.6,18.2-.8,27.3,0,2.1-.6,4.4,2.4,5.3Zm-77.5.9V687c22.3-.6,44.6-1.3,66.8-1.6,4.4-.1,5.5-1.4,5.5-5.6-.2-8.8.3-17.6.5-26.4.1-2,.1-3.8-2.8-3.9-7.8-.1-15.6-.4-23.5-.7-1.5,0-2.6,0-3.1,2.1-1.5,7.4-1.8,7.6-9.5,7.7l-27.8-.2H709.3c-3.6,0-5,1-4.5,4.7.9,6.8,1.8,13.5,2.4,20.3.3,3.6,2,4.4,5.4,4.4Zm-17.1-39.1V648l-53.5,1.9c-1.7,0-3.9-.9-4.4,2.3s.9,4.6,4.4,4.6l100.4-.3a22.4,22.4,0,0,0,5.8-.6,4.9,4.9,0,0,0,4.1-5.3c-.2-3.2-3.1-2-4.6-2C797.6,648.4,780.2,648.5,762.8,648.5Z"/><path d="M186.1,688.7H114.8c-6.5,0-6.6,0-5.9-6.4a302.6,302.6,0,0,0,1.7-31.6c.1-3.5.6-4.8,5-4.4,9.4.8,18.9.3,28.3.4l115.1.2c4.5,0,5.4.4,5.1,5.5-.5,11-2.6,22.1-.3,33.3.5,2.5-2.2,1.9-3.6,1.9l-30.7.2H186.1Zm-1-2.5v-1.1h69.3c3.6,0,4.9-1,4.8-4.7,0-6.8.4-13.6.9-20.5.3-4-.7-5-5.1-4.8-33.3,1.8-66.6,2.7-100,2.4-4.1,0-6.2-1.3-5.5-5.6s-1-4.2-4.1-4.1c-9,.2-17.9.2-26.9,0-2.9,0-4.3.6-4.4,4-.3,9.7-.9,19.4-1.7,29.1-.4,4.2.7,5.3,4.9,5.3C139.9,686.1,162.5,686.2,185.1,686.2Zm22.3-38V648H157.6c-1.5,0-3.9-1.1-4.3,1.6a5,5,0,0,0,2.7,5.3c2.8,1.7,6,1.4,9,1.3l38.1-1c17.9-.3,35.7-.2,53.6-1.7,2.3-.3,4.3-.8,4.1-3.6s-2.7-1.7-4.1-1.7C240.2,648.1,223.8,648.2,207.4,648.2Z"/><path d="M278.3,492a8.1,8.1,0,0,1-5.1,2.6c-2.3.4-2.4,1.6-2.3,3.4.2,5.1.6,5.3,5.1,2.8a111.4,111.4,0,0,1,16.7-8c1-.5,2.3-1.1,2.9.4s-.7,1.4-1.4,1.6c-7.4,3-14.3,7.1-21.5,10.5-4.8,2.3-5.8,1.4-5.9-4.1-.5-35.8.7-71.5,2.9-107.2.2-3.4,1.1-4.8,4.9-4.8s9.7-1.2,14.5-1.8,5.8.6,6.1,5.2c1.3,16.9-1,33.8-1.6,50.6q-.6,19.1.3,38.1c.1,3.1-.9,4.7-3.7,5.7s-7.8,4.1-12.1,5.1c2.8-3.5,7.8-3.3,11.1-6.7-5-.6-9.7-.9-14.2-2s-4.8,0-4.6,3.8c.3,6.9.1,6.9,6.4,4.7A3.8,3.8,0,0,1,278.3,492Zm-8-41.6c0,7.1,0,16.9.1,26.6,0,1.4-.9,3.3,1.9,3.5,4.4.4,8.7,1.1,13,1.9s5-.7,4.9-4.6a467.5,467.5,0,0,1,.7-50.2c.8-11.4,1.8-23,.7-34.5-.3-2.6-1.1-3.4-3.7-2.9a93.1,93.1,0,0,1-10.6,1.4c-3.1.2-3.9,1.6-4.1,4.6C272.4,413.4,271.4,430.6,270.3,450.4Z"/><path d="M692.3,620.7V596.8c0-1.9-1.2-2.5-2.9-2.3a49,49,0,0,1-5.4.4c-2.9-.2-3.7,1.2-3.3,3.8a19.3,19.3,0,0,1,.1,2.4c0,1.2-.1,2.5-1.5,2.7s-2-1.2-2.1-2.6c-.3-6.3-.7-12.6-.9-19-.8-22.4-.8-44.8-.3-67.2.1-2.4.2-4.6,2.9-5.5s3.3,1.4,4.5,2.7,3,3.7,4.9,4.8c6,3.6,7.6,8.9,7.7,15.6,0,14.9.2,29.9-.2,44.8s.2,29.9.4,44.8a22,22,0,0,1-.6,5.8c-.5,1.7-2.3,2.6-3.1.6-2.8-7-8.7-11.6-13.1-17.3-.9-1.1-3.5-2.6-1.1-4.3s2.7.8,3.7,2Zm-11.8-106-1.3.4V535c-.2,18.3.1,36.7,1.2,55,0,1.4-.5,3.1,2.1,3.5,7.7,1.3,9.4,0,9.4-7.5,0-1.8.1-3.6.2-5.4.8-17.5.8-35-.1-52.5-.1-2.2-.5-4.1-2.3-5.6S683.6,517.3,680.5,514.7Z"/><path d="M679.3,444.7a431.1,431.1,0,0,0-1.2-52.1c-.3-3.7.5-4.9,4.4-4.4,12.8,1.6,12.7,1.5,13.7,14.2,2.8,32.7,2.3,65.6,2.3,98.4,0,1.8.6,3.8-1.9,4.9s-4.4.5-6.2-1.1l-1.2-.9c-10.9-8.9-10.6-8.9-10-23C679.7,468.7,679.3,456.7,679.3,444.7ZM683,438c0,12.7.1,25.3-.1,38-.1,7.2-.2,7.2,6.8,8,3.9.4,5.7-.5,5.5-4.8-.4-10.6-.3-21.2-.4-31.7-.3-17.6-1.3-35.1-2.9-52.6-.6-5.7-5.1-4.2-8.1-4.5s-1.8,3.1-1.7,4.7C682.8,409.4,683.5,423.7,683,438Zm12.1,56.7c0-9.4,0-9.4-9-9.7h-.5c-2.1-.3-2.7.6-3.1,2.6-.8,4.6,1,7.7,4.7,10.2s4.6,5.7,7.1,4.7S694.7,497.1,695.1,494.7Z"/><path d="M703.6,28c1.8-2.3,5.6,0,6.8-2.6s.8-5.1,1.6-7.6c3.5-10.5,11.2-16,21.9-17.5s18,1.1,24,9.5c1.4,2.1,12.6,5,15.2,4.1.6-.2,1.1-.7,1.7-.9,4.3-1.7,8.7-.8,9.9,2.3s.3,7.3-3.1,9.8-7.7,2.5-10.3-1.1-5.7-2.5-8.6-3.3-1.7,1.2-1.8,2.3-.5,2.7,1.4,3.1l3.1.4C764.2,27.4,706.3,28.6,703.6,28Zm31.6-2v-.3c6.1,0,12.3-.1,18.4.1,2.8.1,3.8-.8,3.7-3.5-.1-6.8-2.3-12.5-7.7-16.6S735.1-.6,727.2,3.3s-11.9,11.4-13,20.3c-.3,2.7,1.3,2.4,3,2.4Zm40.3-2.5c1.9,2,3.5,1.6,4.7-.1s2.1-4.9.8-7.4-1.8-2.4-3.2-1.6-4.4,2.6-4,5.8c1.8-.1,3-3.5,4.6-1.1S777.4,22.5,775.5,23.5Zm-5.4-5.1a2,2,0,0,0-1.6-2.2c-1.8-.7-3.6-1.2-5.5-1.8s-2.3-.6-2.6.3-.2,2.9,1.1,3.4a51.1,51.1,0,0,0,7,1.7C769.4,20,769.9,19.2,770.1,18.4Z"/><path d="M591.2,124.1c-1.5,2.2-3.1,1.8-4.7,1.8q-96.7-1.2-193.3.6c-7.8.1-15.6-.8-23.4.7-3.7.7-7.5,1.2-8.7,5.7a1.9,1.9,0,0,1-2.8,1.2c-1-.5-.7-1.7-.4-2.6,1-3.1,3.4-4.7,6.3-5.6a38.6,38.6,0,0,1,10.7-1.2c68.6-.3,137.3-1.7,205.9-.6Z"/><path d="M859.8,216.1c-2.8.9-5.2,1-6.2-2s.5-3.2,2.4-3.6,3.1-1.2,1.6,1.6S859.3,214.3,859.8,216.1Z"/><path d="M401.4,664.9l18.2-6,.3.9-18.2,6Z"/><path d="M800.4,295.6c-.5,1.4-1.3,1.8-2.4,1.6a3.5,3.5,0,0,1-2.8-3.9c.1-1.9,1.2-3.6,2.9-3S797.6,294.7,800.4,295.6Z"/><path d="M830,482.4c-27.7,2.3-55.5,3.4-83.3,3.9v-1.7l83.3-3.7A7.6,7.6,0,0,0,830,482.4Z"/><path d="M820.5,489.8c-20.9.6-41.6,1.4-62.4,2.3C778.8,488.9,799.6,488.8,820.5,489.8Z"/></g></g></svg>